<?xml version="1.0" encoding="utf-8"?>
<!-- Generator: Adobe Illustrator 27.0.0, SVG Export Plug-In . SVG Version: 6.00 Build 0)  -->
<svg version="1.1" id="图层_1" xmlns="http://www.w3.org/2000/svg" xmlns:xlink="http://www.w3.org/1999/xlink" x="0px" y="0px"
	 viewBox="0 0 1190.55 841.89" style="enable-background:new 0 0 1190.55 841.89;" xml:space="preserve">
<style type="text/css">
	.st0{fill:#FFFFFF;}
	.st1{font-family:'FuturaCyrillic-Demi';}
	.st2{font-size:93px;}
	.st3{fill:#DA4E36;}
</style>
<text transform="matrix(1 0 0 1.12 309.2659 212.4914)"><tspan x="0" y="0" class="st0 st1 st2">X</tspan><tspan x="4.93" y="137.5" class="st3 st1 st2">P</tspan><tspan x="9.21" y="275" class="st3 st1 st2">T</tspan><tspan x="9.95" y="412.5" class="st3 st1 st2">L</tspan></text>
<text transform="matrix(1 0 0 1.12 453.619 212.4914)"><tspan x="0" y="0" class="st0 st1 st2">I</tspan><tspan x="-24.09" y="137.5" class="st3 st1 st2">O</tspan><tspan x="-8.56" y="275" class="st3 st1 st2">F</tspan><tspan x="0" y="412.5" class="st3 st1 st2">I</tspan></text>
<text transform="matrix(1 0 0 1.12 574.4438 212.4914)"><tspan x="0" y="0" class="st0 st1 st2">T</tspan><tspan x="-6.14" y="137.5" class="st3 st1 st2">R</tspan><tspan x="-16.65" y="275" class="st3 st1 st2">O</tspan><tspan x="-16.65" y="412.5" class="st3 st1 st2">O</tspan></text>
<text transform="matrix(1 0 0 1.12 692.0126 212.4914)"><tspan x="0" y="0" class="st0 st1 st2">A</tspan><tspan x="-5.95" y="137.5" class="st0 st1 st2">O</tspan></text>
<text transform="matrix(1 0 0 1.12 806.0486 212.4914)"><tspan x="0" y="0" class="st0 st1 st2">W</tspan><tspan x="14.23" y="137.5" class="st0 st1 st2">A</tspan><tspan x="9.3" y="275" class="st0 st1 st2">N</tspan><tspan x="9.95" y="412.5" class="st0 st1 st2">G</tspan></text>
</svg>
