<?xml version="1.0" encoding="utf-8"?>
<!-- Generator: Adobe Illustrator 27.0.0, SVG Export Plug-In . SVG Version: 6.00 Build 0)  -->
<svg version="1.1" id="图层_1" xmlns="http://www.w3.org/2000/svg" xmlns:xlink="http://www.w3.org/1999/xlink" x="0px" y="0px"
	 viewBox="0 0 1190.6 841.9" style="enable-background:new 0 0 1190.6 841.9;" xml:space="preserve">
<style type="text/css">
	.st0{font-family:'FuturaCyrillic-Demi';}
	.st1{font-size:104.16px;}
	.st2{fill:none;}
	.st3{fill:#FF6B06;}
	.st4{font-family:'FuturaCyrillicLight';}
	.st5{font-size:67.2px;}
	.st6{letter-spacing:3.4;}
</style>
<text transform="matrix(0.8929 0 0 1 386.126 338.1589)" class="st0 st1">P</text>
<text transform="matrix(0.8929 0 0 1 390.4058 492.1594)" class="st0 st1">T</text>
<text transform="matrix(0.8929 0 0 1 391.146 646.1594)" class="st0 st1">L</text>
<text transform="matrix(0.8929 0 0 1 545.0835 338.1589)" class="st0 st1">O</text>
<text transform="matrix(0.8929 0 0 1 560.6138 492.1584)" class="st0 st1">F</text>
<text transform="matrix(0.8929 0 0 1 569.1738 646.1584)" class="st0 st1">I</text>
<text transform="matrix(0.8929 0 0 1 721.8555 339.7209)" class="st0 st1">R</text>
<text transform="matrix(0.8929 0 0 1 711.3457 493.7209)" class="st0 st1">O</text>
<text transform="matrix(0.8929 0 0 1 711.3457 647.7209)" class="st0 st1">O</text>
<rect x="391" y="352.6" class="st2" width="442" height="94.7"/>
<text transform="matrix(0.8929 0 0 1 390.9619 402.6159)" class="st3 st4 st5 st6">XITAO</text>
<rect x="591.3" y="507.3" class="st2" width="442" height="94.7"/>
<text transform="matrix(0.8929 0 0 1 591.3271 557.2824)" class="st3 st4 st5 st6">WANG</text>
</svg>
